<?xml version="1.0" encoding="utf-8"?>
<!-- Generator: Adobe Illustrator 22.0.1, SVG Export Plug-In . SVG Version: 6.00 Build 0)  -->
<svg version="1.1" id="Capa_1" xmlns="http://www.w3.org/2000/svg" xmlns:xlink="http://www.w3.org/1999/xlink" x="0px" y="0px"
	 viewBox="0 0 1212 510" style="enable-background:new 0 0 1212 510;" xml:space="preserve">
<style type="text/css">
	.st0{fill:#FFFFFF;}
	.st1{fill:#12110B;}
</style>
<circle class="st0" cx="278.8" cy="235.3" r="160.2"/>
<g>
	<g>
		<g>
			<path class="st0" d="M480.6,145.5l-10.2,159.2c0,0-1.9,9.6,12.1,9c13.9-0.6,48.6-2.9,51.2-7.2c2.6-4.3,2.9-11.6-4.1-11.3
				c-7,0.3-42.9,2.3-42.9,2.3s-2.9-1.3-1.8-11.1c1-9.8,9.5-124.9,12.7-142.4c0,0,2.6-13.9-5.6-14
				C483.7,129.8,482.6,138.3,480.6,145.5"/>
		</g>
		<g>
			<path class="st0" d="M611.5,285.3c-2.2,6.2-9.8,10-9.8,10c-34.8,13.8-43.2-11.1-43.8-23.2s16.2-10,38.1-9.7
				c21.9,0.4,33.1-7.9,29.7-63.1c-3.4-55.2-37.6-76.5-56.3-72.3c-18.7,4.3-21.8,62.6-21.8,62.6s-4,63.1-3.9,78.8
				c0.1,15.6,4.1,43,33,46.3s45.9-14.3,45.9-14.3C627,293.4,613.7,279,611.5,285.3z M562.7,164.6C566.5,140.4,580,143,580,143
				c38.2,6,32.2,80.9,30.3,90.5s-6.8,10.9-6.8,10.9c-14.4,2.3-37.9,2.4-37.9,2.4c-7.6,1-7.4-6.3-7.4-6.3
				C557.9,234,559,188.8,562.7,164.6z"/>
		</g>
		<g>
			<path class="st0" d="M651.4,341.9c-3.3-0.8-5.5-3.9-5.4-7.3c1.2-22.6,7.8-153.8,6.8-159.1c-1.1-5.8-2.5-15,6.9-15.9
				c9.5-0.9,7.2,6.7,6.7,10.2c-0.6,3.5,32.2-32,55,16.3c0,0,9-21.7,31.3-24s31.9,16.6,34.3,43.4c2.3,26.9,19.9,140.8,6.3,137.3
				c-13.7-3.5-10.8-19.7-10.8-19.7s-1.8-73.1-11-120.8c0,0-2.2-25.9-22.7-26.3c-20-0.4-23,66.6-21.2,107.6c0.1,3.2-1.2,6.4-3.9,8.3
				c-1.4,1-3.1,1.6-5.1,1.2c-5.6-1.2-6.3-13.3-6.3-13.3s17.3-107.5-22.5-108c0,0-22-1.8-25,45.1s-2.9,113.5-2.9,113.5
				s0.2,11.3-5.7,11.7C654.2,342.4,652.7,342.2,651.4,341.9z"/>
		</g>
		<g>
			<path class="st0" d="M882.3,346.1c82.6-22.2,36.3-192.5,36.3-192.5s-0.2-5.6-5.3-5.7c-5-0.1-11.2,2.3-8.8,9.9
				c2.4,7.6,42.3,169.8-35.4,173.5c0,0-70.5,15-36.6-172.2c0,0,3.2-4.6-2.5-7.2c-5.7-2.6-10.1-1.5-12.1,3.8
				c0,0-40.1,187.1,43.1,192.6c0,0,11.1,0,20-2L882.3,346.1z"/>
		</g>
		<g>
			<path class="st0" d="M1036.6,348.1c19.8-3.6,45.5-16.7,56-60.6c17.9-74.7-38.1-182.8-38.1-182.8s-2.5-3.6-8.2,0.2
				c-5.7,3.9-1.1,9.5-1.1,9.5c1.2,2.2,48.4,102.6,31.4,171.2c0,0-10.2,48-62.3,48.6c-52.1,0.6-69.1-109.1-54.7-192.2
				c0,0,3.4-13.3,0.9-15.8c-2.5-2.6-8.9-5.8-13.2,5.8c0,0-35.5,208.8,64.2,216.5c0,0,5.2,1.5,24.4-0.3L1036.6,348.1z"/>
		</g>
	</g>
</g>
<g>
	<g>
		<path class="st1" d="M279.5,398.1c-90.2,0-163.6-73.4-163.6-163.6S189.3,70.9,279.5,70.9s163.6,73.4,163.6,163.6
			C443.2,324.7,369.8,398.1,279.5,398.1z M279.5,77.1c-86.8,0-157.4,70.6-157.4,157.4s70.6,157.4,157.4,157.4
			s157.4-70.6,157.4-157.4S366.3,77.1,279.5,77.1z"/>
	</g>
	<g>
		<path class="st1" d="M352.5,184.7"/>
	</g>
	<g>
		<path class="st1" d="M397.7,209.4l3.5,6.5c0,0,5-1.7,6.5-1.8C409.3,214,402.8,211.1,397.7,209.4z"/>
	</g>
	<path class="st1" d="M410.1,293.5c0,0-6.4,12.3-7.1,14.2c-0.7,1.8-2.1,8.8-2.1,8.8l-0.8,12c20.4-26,32.6-58.7,32.6-94.3
		c0-84.4-68.5-152.9-152.9-152.9c-77.7,0-141.8,57.9-151.6,132.9l0.7,0.5c4.1,3.3,7.4,6.8,9.5,9.5c0,0,8.6-6.3,11.6-20.7
		s-1-18.2,8.8-33.3s23.7-34.5,46.4-39.2s51,14.2,61.6,18.7c10.6,4.4,24.8,19,32.2,22.7c7.3,3.7,16.5,10.6,21.8,16.8
		s14.9,9.1,17.9,10c3,1,10.1,1.9,12.7,2.9l0.5,0.2l0.2,0.1c0,0,4.6,1.2,4.7,3c0.1,1.7-0.8,1.3,1.2,2.4c2,1,7.6,4.7,6,10.9
		c0,0-0.6-2.1-1.1-0.6c-0.6,1.5-0.1,6.4-1.6,7.7c-1.5,1.2-2.1,3.7-2.3,6.2c-0.2,2.5-2.8,5.6-5.3,6.2c-2.5,0.7-8.1,3.4-10.8,7.6
		c-2.7,4.2-16,6.9-19.5,3.7s-11.3-7-12.5-5.1c-1.3,1.9,5.9,0.2,10.6,5.8s14,3.5,19.3-0.3c5.4-3.8,5-8.5,14.4-11s7.6-3.9,7.6-3.9
		s-3.3,0.3-2.4-1.9c0.5-1.3,0.2-2.2,0.1-3.1v-0.1c1.3,0.3,6.4,1.6,6.4,4.1c0,2.8-3.3,6-5.5,6.3s-5.5,2.9-5.5,2.9s1.6,1.1,1.4,3
		c0,0,7.2-8.5,18.7-10.3l3.8,3.3c0,0,21.4-12.3,26-12.9c0,0,5.6,3.3,7.2,11.2c0,0-12-3.3-23,15.8c0,0-0.6,1.2-2.3,1
		c-1.7-0.3,2.7-9,4.5-11s-4.7-0.3-7.6,12.8s-0.3,38.2-1.3,43.4c-1,5.2-4.3,12.1-7.8,13.5c-3.4,1.4-2.4,13.7-7.4,25.2s-1,4.7,4.2-8.3
		s6.4-10.8,8.7-17.5c2.3-6.7,3.9-24.9,4.9-26.4s13.9-4.8,25,1.5c0,0-0.1,4.5-0.6,5.3s3.8,0.2,4.2-3.1c0.4-3.3-8.2-7.4-20.4-6.8
		c0,0-5.5,0.5-8.7,2.2c0,0-0.4-2.1,0.5-3.8c0.9-1.7,3.1-5.7,16.3-3.5c13.2,2.2,13.2,4.7,13.2,4.7s1.7-4.6-17.3-6c0,0-9-0.6-12.4,2.4
		c0,0-2.5-2,2.9-8.2s9.1-13,8.2-14.6c-0.9-1.5-4.2,1.6-7.4,7.8c-3.2,6.1-2.5-2.5,1.5-9.7s13.8-18.7,24.5-14.6c0,0,0.7-1.4-1.4-1.7
		c0,0-1.1-6.5-6.9-11.9c0,0,2.2-0.9,3.2,0h0.2c-0.1,0.9,0.5,2.3,0.5,2.3s6.1,11.3,7.1,16s4.2,8.1,3.7,11.2
		c-0.5,3.2-0.8,9.9-1.8,11.3c-1.1,1.4-2.2,2.6-2.2,2.6s1,2.9,0.6,4.5s-0.6,2.5-0.8,4.3c-0.2,1.8-0.2,4.6-1.5,5.2c0,0-0.9,3-0.5,4.9
		C416.2,290,415,293.2,410.1,293.5z M391.8,156.8c-2.8-7.1-8.7-7.3-12.3-11.1c-3.6-3.8,1.4-6.3,1.4-6.3s-4.8,3.3,2.6,7.2
		C390.9,150.5,391.8,156.8,391.8,156.8z M344.2,165.4c-0.2-12.1,10.5-16.1,10.5-16.1c-5.5,0.9-8.3,5.2-8.3,5.2s2.7-5.5,6.4-6.8
		c3.7-1.3,8-8.9,8-8.9c-5.4,1.2-10.2,8.7-10.2,8.7s3-10,16-12.6c13-2.7,17.2,0.6,17.2,0.6c-13.8,2.2-9.1,9.9-9.1,9.9
		c-7.3-6.2,4.1-10.2,4.1-10.2c-2.3-1-6.7-0.3-8.8,3.7c-2.1,4-6.6,7.6-6.6,7.6c2.1-1.6,5.6-10.2,5.6-10.2c-2.5,0.2-5,3.2-6,6.7
		s-1.5,9.4-9.2,11.6C346.1,156.6,344.2,165.4,344.2,165.4z M380.3,238.1c0,0-9.1-8.1-9.6-8.9c-0.5-0.9-0.8,0.8-2.1,0.3
		c-1.3-0.5-5.1,0.9-5-1.3s0.7-5.4,5.8-4.7c1.3,0.2,8.7-0.3,8.7-0.3c4.6-0.6,9-4.9,9.5-6.4c0.6-1.4,0.6-2.2,0.6-2.2
		c-7.9,10.1-17.3,2.9-18.2,1.6c-0.9-1.3-3.2-2.8-6.4-5.3c-3.3-2.5-1.7-4.4-1.7-4.4c3.7-2.2,4.6,0.6,7.1,3.3c2.5,2.8,7,1.5,7,1.5
		c8.1-2.2,10.8-10.6,10.2-9.9c-0.6,0.7-5.8,2.2-7.7,2c-1.9-0.1-3.3,1.3-4.4,1.2s-4.3,0.2-6.4-0.2c-2.2-0.4-1.6-3.2-0.9-2.6
		c0.7,0.6,2.6,0.4,3.1-0.1c0.5-0.6,2.7-0.4,3.4-0.3c0.7,0.2,2.2-0.1,2.7-0.9c0.5-0.7,1.2-1.2,1.7-1.2s1.2-0.2,1.1-1
		c-0.2-0.7-1.6,0.1-2.8,1.4c-1.2,1.2-2.6,1.2-4,0s-2.3-0.1-3.1,0.6c-0.7,0.7-0.9,0.2-1.1-0.5c-0.1-0.7-0.7-1.5-1.4-1.9
		c-0.7-0.3-0.7-0.7,0.1-1.6c0.7-0.9,0.6-2.2,0.6-2.2s-1.4,2-1.9,2.6c-0.6,0.5-1.7,1.8-2.1,2.9c-0.4,1.1-1.7,4.1-4.4,4.1
		c-2.6-0.1-5.7-5.3-5.8-8c-0.1-2.7-0.4-16-1.1-18.4s0.2-16.8,6.6-19.2l-0.4,1.2c-1.5,3.7,1.1,9.2,1.4,5.7c0.3-3.9,2.3-4.2,2.3-4.2
		c-2.2,5.9,1.2,9.1,1.2,9.1c-1.1-4.2,0.4-7.8,0.4-7.8c2.2,10.8-1.6,14.2-1.6,14.2c3.4-2.3,3.4-10.8,3.4-10.8
		c0.5,2.1,2.4,2.1,2.4,2.1c-1.8-2.6-2-5.7-1.4-6.2s1.5,0.9,1.5,0.9c3.9,7.4-1.9,15.5-1.9,15.5c7.5-3,6.6-12.9,6.6-12.9
		c1.5,8.8-2.1,13-2.1,13c1.9-1.1,2.7-2,2.7-2c-1.5,2.8-3.3,3.9-3.3,3.9c6.8-2.1,10-10.1,10-10.1c0.2,8-2.6,9.7-2.6,9.7
		c5.9-2.2,6.3-9.8,6.3-9.8c2.5,7.5-0.3,9.5-0.7,9.7c4.9-2.7,4.3-8.6,4.3-8.6c4.2,4.4,2,7.7,2,7.7c3.5-0.2,6-3.6,6-3.6
		c-1.1,2.6,0.7,4.3,0.7,4.3l0.6-2.9c0,0,5.7,7.4,3.8,13.4c-1.1,3.5-0.9,6.8-0.5,8.8l-3.4,6.4c-0.8,1.5,0.5,3.2,0.5,3.2
		c3.7,1.1,12.7,4.7,13.6,5.9c0.8,1.2-0.4,3.4-1,4.8c-0.6,1.3,0.4,3.8,0.4,3.8l1.2,2.5C407.9,225.4,405,223.5,380.3,238.1z
		 M409.9,180.8c-0.6,2,0.5,3.2-1.9,7.3s-5,3.9-5.7,3.3c-0.7-0.7,0.5-3.3,0.8-5.4c0.3-2,1.1-1.1,2.7-1.5c1.5-0.4,1-5.9,0.2-8.5
		s0.7-2,0.7-2c0.6-1,1.2,1.1,2.1,0.7c1-0.5-0.8-3.1-0.2-4.1c0.6-1,2.3,2.7,2.6,4.9C411.5,177.5,410.5,178.8,409.9,180.8z"/>
	<g>
		<path class="st1" d="M343.7,209.1c0,0,1.6,2.9,5.5,1.7c3.8-1.1,12.6-1.3,12.4,3.4c0,0-0.1,1.1-1.4,1.3c0,0,0.5,4-2.3,4.3
			s-13-0.7-15.4-6.5C340.1,207.5,343.7,209.1,343.7,209.1z"/>
	</g>
	<g>
		<path class="st1" d="M311.9,346.8c0,0,2.7,2.4,7.3,5c4.6,2.6,8.9,3.4,17.5,4.2c8.6,0.7,12.6,1.3,13.9,3.6c1.3,2.3,3.4,3.3,3.4,3.3
			c-1.8,0.1-5.7,4.7-7.9,8.4l-0.4,0.9c-12.3,5.9-25.4,10.1-39.2,12.6l0.1-0.8c2-9.7,8-30.2,8-30.2s0.9-2.2-2.4-4.3
			c-3.3-2.2-1.8-5.7-1.8-5.7s12.7-54,19.7-67L315,266.7c0,0-0.9-0.5-7.9,1.9c-7.1,2.4-16.2,2.9-26.7,13.8s-25.2,25.3-24.6,33
			c0.6,7.6-1.2,19.9-2.6,22.9c-1.4,3-3.3,8.3-1.3,13.5c0,0-9.5,6.1-22-0.6c0,0-15.7,16.8-17.9,19.9c0,0-3.4-1.8-3.8-2.1
			c0,0,16.9-15.7,27.1-29.1c0,0,10.1-15.2,13.2-22.7c0,0,11.7-21.7,27.5-36.1c0,0,8.8-9.4,10-11.7l-1.2-0.2
			c-6.5-0.8-16.7,5.9-29.6,2.7c-13.6-3.4-21.7,3.7-20.3,0.3c1.4-3.5,8.8-4.2,19.7-2.3c10.9,1.9,25.3-4.9,31.4-2.3
			c6.2,2.6,20.7-0.7,23.3-1.6c2.6-0.9,7.5-1.4,11.1-1.4s5.4,0,12.9,1.9s15.6-3.4,16.5-6.2c1.5-4.4,3.4-6.2,3.4-6.2
			c0.1-0.6,0.8-0.9,1.7-2.3c0.9-1.4,1.4-2.7,1.4-1.9s-0.5,2.1-1.7,3.9c-1.2,1.9-2.3,5.3-2.3,5.3c-0.5,1.6-1.3,2.8-2.1,3.8
			c0,0-4.2,9.1-8.3,31.2c-4.1,22-9.1,58.6-9.1,58.6c-8.3,3.1-18-6-20.1-8.1C312.8,344.4,311.8,345,311.9,346.8z"/>
	</g>
	<g>
		<path class="st1" d="M144.6,305.7c10.8,20.4,26.1,38.1,44.6,51.7c0,0-0.1-1.9-1.7-3c-1.6-1.1-4.6-4-4.6-4
			c-3.2-3.2,18.5-35.1,25.2-45.3c6.7-10.1-4.9-34.9-8-41.4c-3-6.5-1.7-23.7,1.7-28s-2.8-5.8-2.8-5.8c-1.9,0.6,0.4,2.4-0.2,4.3
			c-0.6,1.9-7.8,9.3-16.4,19.2c-8.6,9.9-5.8,14.4-7.1,23.1c-1.3,8.6-17.7,16.4-29.3,27.8L144.6,305.7z"/>
	</g>
	<g>
		<path class="st1" d="M127.3,244.3c0.5,7,1.4,13.9,2.7,20.6l1.9-0.8c9.4-3.8,18.8-8.4,24.9-12.8c15.1-11,28-35.5,30.4-45.5
			c2.4-9.9-0.9-10.3-7.3-9.9c0,0-8,0.6-11.1,0.3c-3.2-0.3-2.7-1.6-9.1-0.8c0,0-6.3,2.2-6,8c0.2,5.4-8.8,29.5-25.8,40.4L127.3,244.3z
			"/>
	</g>
	<g>
		<path class="st1" d="M251.7,170.7c0,0-1.4,0.1-6.6-0.7c-5.2-0.9-13.7-2.2-18.3,7.1c0,0,0.9,0.1,2.3-2c1.4-2.2,4.2-4.8,8.7-3.6
			c0,0-3,0.7-4.7,3.9s-7.8,5-7.8,9c0,0,1.5,1.1,2.7-0.9c1.3-2.1,3-1.2,6.2-0.9c3.2,0.4,6-0.3,8.5-4.5c2.4-4.2,6.4-3.7,8.3-3.7
			C252.8,174.5,253.3,170.7,251.7,170.7z"/>
	</g>
	<g>
		<path class="st1" d="M378.1,185.8c0,0,0.9-2.5,3.8-3.1c2.8-0.6,6.4-0.2,6.6,0.2s-2.8,2.8-6.1,3.2c0,0-1.2,0-2-0.7
			s-1.4,0.2-1.7,0.4C378.2,186,378.1,185.8,378.1,185.8z"/>
	</g>
	<g>
		<path class="st1" d="M354.5,188.5c0,0,3.4-5,11.9-1.6c0,0,0.6-0.1,0.6-0.9c-0.1-0.7-3.7-2.6-8.5-1.2c0,0-0.6-0.2,0-0.4
			s9.6-2.2,10.5,0.6s1.4,6.9,1.3,7.3c-0.1,0.4-0.7-2.4-1.4-1.5c-0.7,0.9-2.2,1.8-3,1.9c-0.9,0.1,1.4-1,1.4-2.9s-1,3-6,1.1
			c0,0,3.7-0.7,4.8-3.1c0,0-1.3,0.2-2,0.7C363.3,188.9,359.1,190.8,354.5,188.5z"/>
	</g>
	<g>
		<path class="st1" d="M345.8,372.2"/>
	</g>
	<g>
		<path class="st1" d="M400.1,328.5"/>
	</g>
	<g>
		<path class="st1" d="M400.1,328.5"/>
	</g>
	<g>
		<path class="st1" d="M400.1,328.5"/>
	</g>
	<g>
		<path class="st1" d="M312.4,344"/>
	</g>
	<g>
		<path class="st1" d="M384.6,194.7c0,0-0.3-0.1-0.1,0.4c0.2,0.6,0.5,1.4,1.3,1.5c0.7,0.1,4.7-0.8,3.4,5.6c0,0,0.1,0.2,0.6-1.5
			c0.5-1.6,1.1-3.1-1.2-4.3C386.2,195.2,384.6,194.7,384.6,194.7z"/>
	</g>
</g>
</svg>
