<?xml version="1.0" encoding="utf-8"?>
<!-- Generator: Adobe Illustrator 22.0.1, SVG Export Plug-In . SVG Version: 6.00 Build 0)  -->
<svg version="1.1" id="Layer_1" xmlns="http://www.w3.org/2000/svg" xmlns:xlink="http://www.w3.org/1999/xlink" x="0px" y="0px"
	 viewBox="0 0 512 558" style="enable-background:new 0 0 512 558;" xml:space="preserve">
<style type="text/css">
	.st0{fill:#FFFFFF;}
</style>
<g>
	<g>
		<g>
			<path class="st0" d="M256,27.5c-97.6,0-176.9,79.4-176.9,176.9c0,50.4,28.5,119.7,82.4,200.4c42.5,63.6,86.6,112.9,88.4,114.9
				c1.6,1.8,3.7,2.7,6.1,2.7c2.4,0,4.5-1,6.1-2.7c1.9-2.1,45.9-51.3,88.4-114.9c53.9-80.7,82.4-150,82.4-200.4
				C432.9,106.9,353.6,27.5,256,27.5z M256,501.9l-6.5-7.7c-36.1-42.9-154-190.7-154-289.8c0-88.5,72-160.5,160.5-160.5
				s160.5,72,160.5,160.5c0,99.1-117.9,246.9-154,289.8L256,501.9z"/>
		</g>
	</g>
</g>
<g>
	<g>
		<g>
			<path class="st0" d="M256,119.6c-46.8,0-84.8,38-84.8,84.8s38,84.8,84.8,84.8c46.8,0,84.8-38,84.8-84.8S302.8,119.6,256,119.6z
				 M256,272.8c-37.7,0-68.4-30.7-68.4-68.4c0-37.7,30.7-68.4,68.4-68.4s68.4,30.7,68.4,68.4C324.4,242.1,293.7,272.8,256,272.8z"/>
		</g>
	</g>
</g>
</svg>
