<?xml version="1.0" encoding="utf-8"?>
<!-- Generator: Adobe Illustrator 22.0.1, SVG Export Plug-In . SVG Version: 6.00 Build 0)  -->
<svg version="1.1" id="Layer_1" xmlns="http://www.w3.org/2000/svg" xmlns:xlink="http://www.w3.org/1999/xlink" x="0px" y="0px"
	 viewBox="0 0 512 551" style="enable-background:new 0 0 512 551;" xml:space="preserve">
<style type="text/css">
	.st0{fill:#FFFFFF;}
</style>
<g>
	<path class="st0" d="M252.4,26.5c-32.1,0-59.9,11.5-82.6,34.2c-22.7,22.7-34.2,50.5-34.2,82.6c0,32.1,11.5,59.9,34.2,82.6
		c22.7,22.7,50.5,34.2,82.6,34.2c32.1,0,59.9-11.5,82.6-34.2c22.7-22.7,34.2-50.5,34.2-82.6c0-32.1-11.5-59.9-34.2-82.6
		C312.2,38,284.4,26.5,252.4,26.5z M252.4,243.1c-27.8,0-50.9-9.6-70.6-29.2c-19.7-19.7-29.2-42.8-29.2-70.6
		c0-27.8,9.6-50.9,29.2-70.6c19.7-19.7,42.8-29.2,70.6-29.2c27.8,0,50.9,9.6,70.6,29.2c19.7,19.7,29.2,42.8,29.2,70.6
		c0,27.8-9.6,50.9-29.2,70.6C303.2,233.6,280.2,243.1,252.4,243.1z"/>
</g>
<g>
	<path class="st0" d="M154.6,273.8c-12.5,0-24.1,2.1-34.6,6.2c-10.5,4.1-19.5,9.8-26.9,16.9c-7.2,6.8-13.5,15.2-19,24.8
		c-5.3,9.4-9.7,19.2-12.8,29.1c-3.1,9.7-5.7,20.4-7.7,31.7c-2,11.2-3.4,21.9-4.1,31.7c-0.7,9.6-1,19.6-1,29.8
		c0,24.9,7.8,44.9,23.2,59.6c15.3,14.6,35.7,21.9,60.6,21.9h246.5c24.9,0,45.3-7.4,60.6-21.9c15.4-14.7,23.2-34.7,23.2-59.6
		c0-10.2-0.3-20.2-1-29.8v0c-0.7-9.7-2-20.4-4.1-31.7c-2-11.3-4.6-22-7.7-31.7c-3.2-9.9-7.5-19.7-12.8-29.1
		c-5.5-9.6-11.9-18-19-24.8c-7.3-7-16.4-12.7-26.9-16.9c-10.5-4.1-22.1-6.2-34.6-6.2c-3.2,0-6.9,1.2-16.5,7.4
		c-6.1,4-13.1,8.5-20.9,13.5c-7.2,4.6-16.8,8.8-28.5,12.6c-11.6,3.8-23.4,5.7-35,5.7c-11.6,0-23.4-1.9-35-5.7
		c-11.7-3.8-21.3-8-28.5-12.6c-7.8-5-14.9-9.5-20.9-13.5C161.5,275,157.8,273.8,154.6,273.8z M378.8,508.5H132.3
		c-20.7,0-36.7-5.6-48.9-17.3c-12.1-11.5-18-27-18-47.3c0-9.8,0.3-19.4,1-28.6c0.6-9.1,1.9-19.2,3.8-29.8
		c1.9-10.6,4.3-20.5,7.2-29.5c2.8-8.8,6.7-17.5,11.4-25.9c4.6-8.2,10-15.2,16-20.9c5.8-5.5,12.9-10,21.4-13.3
		c7.8-3.1,16.5-4.8,25.8-5l1.7,0l1.5,0.8c1.7,0.9,3.9,2.2,6.5,3.9c6.4,4.2,13.5,8.7,21.1,13.6c8.4,5.4,19.3,10.2,32.4,14.4
		c13.3,4.3,26.9,6.5,40.3,6.5c13.4,0,27-2.2,40.3-6.5c13.1-4.2,24-9.1,32.4-14.5c8.2-5.2,15.1-9.7,21.1-13.6c2.6-1.7,4.8-3,6.5-3.9
		l1.5-0.8l1.7,0c9.4,0.3,18.1,1.9,25.9,5c8.4,3.3,15.6,7.8,21.4,13.3c6,5.7,11.3,12.7,16,20.9c4.8,8.4,8.6,17.1,11.4,25.9
		c2.9,9,5.3,19,7.2,29.5c1.9,10.7,3.2,20.7,3.8,29.8l0,0.2c0.6,9.1,1,18.6,1,28.4c0,20.3-5.9,35.8-18,47.3
		C415.5,502.9,399.5,508.5,378.8,508.5z"/>
</g>
</svg>
