<?xml version="1.0" encoding="utf-8"?>
<!-- Generator: Adobe Illustrator 22.0.1, SVG Export Plug-In . SVG Version: 6.00 Build 0)  -->
<svg version="1.1" id="Capa_1" xmlns="http://www.w3.org/2000/svg" xmlns:xlink="http://www.w3.org/1999/xlink" x="0px" y="0px"
	 viewBox="0 0 33 33" style="enable-background:new 0 0 33 33;" xml:space="preserve">
<style type="text/css">
	.st0{fill:#FFFFFF;}
</style>
<g>
	<path class="st0" d="M31.3,8.3h-5.5c0,0-0.1-0.1-0.1-0.1L19.5,3c-0.2-0.2-0.5-0.1-0.7,0.1c-0.2,0.2-0.1,0.5,0.1,0.7l5.5,4.6H8.7
		l5.5-4.6c0.2-0.2,0.2-0.5,0.1-0.7c-0.2-0.2-0.5-0.2-0.7-0.1L7.3,8.2c0,0-0.1,0.1-0.1,0.1H1.7c-1,0-1.7,0.8-1.7,1.7v3.2
		c0,1,0.8,1.7,1.7,1.7h1L4,28.4c0.1,1,0.9,1.7,1.9,1.7H27c1,0,1.8-0.7,1.9-1.7L30.3,15h1c1,0,1.7-0.8,1.7-1.7v-3.2
		C33,9.1,32.2,8.3,31.3,8.3z M28,28.3c0,0.5-0.4,0.8-0.9,0.8H6c-0.5,0-0.9-0.4-0.9-0.8L3.7,15h25.6L28,28.3z M32,13.3
		c0,0.4-0.3,0.7-0.7,0.7h-1.4H3.2H1.7C1.3,14,1,13.7,1,13.3v-3.2c0-0.4,0.3-0.7,0.7-0.7h29.6c0.4,0,0.7,0.3,0.7,0.7V13.3z"/>
	<path class="st0" d="M9.3,26c0.3,0,0.5-0.2,0.5-0.5v-7.2c0-0.3-0.2-0.5-0.5-0.5S8.8,18,8.8,18.3v7.2C8.8,25.8,9,26,9.3,26z"/>
	<path class="st0" d="M14.1,26c0.3,0,0.5-0.2,0.5-0.5v-7.2c0-0.3-0.2-0.5-0.5-0.5s-0.5,0.2-0.5,0.5v7.2C13.6,25.8,13.8,26,14.1,26z"
		/>
	<path class="st0" d="M18.9,26c0.3,0,0.5-0.2,0.5-0.5v-7.2c0-0.3-0.2-0.5-0.5-0.5s-0.5,0.2-0.5,0.5v7.2C18.4,25.8,18.6,26,18.9,26z"
		/>
	<path class="st0" d="M23.7,26c0.3,0,0.5-0.2,0.5-0.5v-7.2c0-0.3-0.2-0.5-0.5-0.5s-0.5,0.2-0.5,0.5v7.2C23.2,25.8,23.5,26,23.7,26z"
		/>
</g>
</svg>
