<?xml version="1.0" encoding="utf-8"?>
<!-- Generator: Adobe Illustrator 22.0.1, SVG Export Plug-In . SVG Version: 6.00 Build 0)  -->
<svg version="1.1" id="Layer_1" xmlns="http://www.w3.org/2000/svg" xmlns:xlink="http://www.w3.org/1999/xlink" x="0px" y="0px"
	 viewBox="0 0 512.2 512.2" style="enable-background:new 0 0 512.2 512.2;" xml:space="preserve">
<style type="text/css">
	.st0{fill:#FFFFFF;}
</style>
<g transform="translate(1 1)">
	<g>
		<g>
			<g>
				<path class="st0" d="M297.7,263.1c-3.5,0-5.5,2.1-5.5,5.5v76.8c0,1.7,0.5,3.1,1.5,4.1c1,1,2.4,1.5,4.1,1.5h136.5
					c3.5,0,5.5-2.1,5.5-5.5v-76.8c0-3.5-2.1-5.5-5.5-5.5H297.7z M428.7,339.9H303.3v-65.7h125.5V339.9z"/>
			</g>
			<g>
				<path class="st0" d="M49.6,400.7l401.8,1.4c17.2,0,31.1-14,31.1-31.1l0-273.1h3h-3c0-17.2-14-31.1-31.1-31.1H58.8c0,0,0,0,0,0
					c-8.3,0-16.1,3.2-22,9.1c-5.9,5.9-9.1,13.7-9.1,22V371C27.7,384.5,36.7,396.7,49.6,400.7z M451.3,391.1H58.8
					c-11.1,0-20.1-9-20.1-20.1V188.8h432.7V371C471.4,382.1,462.4,391.1,451.3,391.1z M471.4,177.7H38.7v-57.2h432.7V177.7z
					 M471.4,109.5H38.7V97.9c0-11.1,9-20.1,20.1-20.1h392.5c11.1,0,20.1,9,20.1,20.1V109.5z"/>
			</g>
		</g>
	</g>
</g>
</svg>
