<?xml version="1.0" encoding="utf-8"?>
<!-- Generator: Adobe Illustrator 22.0.1, SVG Export Plug-In . SVG Version: 6.00 Build 0)  -->
<svg version="1.1" id="Layer_1" xmlns="http://www.w3.org/2000/svg" xmlns:xlink="http://www.w3.org/1999/xlink" x="0px" y="0px"
	 viewBox="0 0 91.2 30" style="enable-background:new 0 0 91.2 30;" xml:space="preserve">
<style type="text/css">
	.st0{fill:url(#SVGID_1_);}
	.st1{fill:url(#SVGID_2_);}
	.st2{fill:url(#SVGID_3_);}
	.st3{fill:url(#SVGID_4_);}
</style>
<g>
	<linearGradient id="SVGID_1_" gradientUnits="userSpaceOnUse" x1="6.2099" y1="15.8147" x2="89.2249" y2="15.2686">
		<stop  offset="0" style="stop-color:#262860"/>
		<stop  offset="1" style="stop-color:#3D429B"/>
	</linearGradient>
	<path class="st0" d="M89.7,29.1c-2.2,0-4.4,0-6.7,0c-0.2-1.2-0.5-2.3-0.7-3.5c-0.1-0.5-0.2-0.7-0.8-0.7c-2.7,0-5.3,0-8,0
		c-0.4,0-0.6,0.1-0.7,0.5c-0.4,1.1-0.8,2.2-1.2,3.3c-0.1,0.1-0.2,0.3-0.4,0.4c-2.4,0-4.8,0-7.3,0c0.5-1.1,0.9-2.1,1.3-3.2
		c3.1-7.4,6.2-14.8,9.3-22.2c0.7-1.6,1.7-2.3,3.4-2.3c1.9,0,3.9,0,5.8,0c0.2,0.9,0.4,1.8,0.6,2.7c1.5,7.3,3,14.6,4.6,21.9
		c0.2,0.9,0.4,1.9,0.6,2.8C89.7,29,89.7,29.1,89.7,29.1z M81,19.3c-0.7-3.4-1.4-6.8-2.1-10.1c0,0-0.1,0-0.1,0
		c-1.2,3.4-2.4,6.7-3.7,10.1C77.1,19.3,79,19.3,81,19.3z"/>
	<linearGradient id="SVGID_2_" gradientUnits="userSpaceOnUse" x1="6.2085" y1="15.6065" x2="89.2233" y2="15.0603">
		<stop  offset="0" style="stop-color:#262860"/>
		<stop  offset="1" style="stop-color:#3D429B"/>
	</linearGradient>
	<path class="st1" d="M60.7,1c0.9,0.2,1.8,0.3,2.6,0.5c0.8,0.2,1.6,0.4,2.4,0.7c-0.4,2-0.8,3.9-1.2,5.8c-1.1-0.3-2.2-0.7-3.3-0.9
		c-1.5-0.3-3-0.5-4.5,0c-0.6,0.2-1.2,0.5-1.7,0.9c-0.8,0.7-0.8,1.7,0,2.5c0.5,0.5,1.2,0.9,1.8,1.3c1.5,0.9,3,1.6,4.4,2.6
		c1.7,1.1,2.9,2.6,3.1,4.7c0.5,3.6-0.9,6.5-3.9,8.5c-1.9,1.3-4.1,1.8-6.3,2c-3.2,0.3-6.2-0.1-9.2-1c-0.2-0.1-0.4-0.1-0.6-0.2
		c-0.1,0-0.1-0.1-0.2-0.1c0.4-2,0.9-4,1.3-6c0.5,0.2,1,0.4,1.5,0.6c2.4,0.9,4.8,1.4,7.3,0.9c0.7-0.1,1.3-0.4,1.9-0.8
		c1.2-0.8,1.3-2.3,0.2-3.3c-0.7-0.6-1.6-1.1-2.4-1.6c-1.3-0.8-2.6-1.4-3.9-2.3C48.3,14.5,47.2,13,47,11c-0.3-3,0.8-5.4,3.1-7.3
		c2-1.6,4.3-2.4,6.9-2.7c0.1,0,0.3-0.1,0.4-0.1C58.5,1,59.6,1,60.7,1z"/>
	<linearGradient id="SVGID_3_" gradientUnits="userSpaceOnUse" x1="6.2068" y1="15.3565" x2="89.2218" y2="14.8103">
		<stop  offset="0" style="stop-color:#262860"/>
		<stop  offset="1" style="stop-color:#3D429B"/>
	</linearGradient>
	<path class="st2" d="M34.8,1.5c-0.4,0.9-0.7,1.8-1.1,2.6c-3.4,8.2-6.9,16.3-10.3,24.5c-0.2,0.4-0.4,0.5-0.8,0.5c-2.2,0-4.3,0-6.5,0
		c-0.5,0-0.6-0.2-0.7-0.6c-1.8-7.1-3.7-14.3-5.5-21.4C9.6,5.8,9,4.9,7.7,4.4c-2-0.9-4.1-1.5-6.2-2c-0.1,0-0.2,0-0.3-0.1
		c0-0.8,0-0.8,0.8-0.8c3.8,0,7.6,0,11.4,0c1.8,0,3.1,1,3.4,2.8c1,5,1.9,10.1,2.8,15.1c0,0.2,0.1,0.4,0.2,0.7
		c0.1-0.2,0.2-0.3,0.2-0.4c2.4-5.9,4.7-11.9,7-17.8c0.1-0.3,0.3-0.4,0.6-0.4c2.2,0,4.4,0,6.6,0C34.5,1.5,34.6,1.5,34.8,1.5z"/>
	<linearGradient id="SVGID_4_" gradientUnits="userSpaceOnUse" x1="6.208" y1="15.5445" x2="89.223" y2="14.9983">
		<stop  offset="0" style="stop-color:#262860"/>
		<stop  offset="1" style="stop-color:#3D429B"/>
	</linearGradient>
	<path class="st3" d="M31.9,29.1c2-9.2,3.9-18.4,5.9-27.6c2.4,0,4.8,0,7.2,0c-0.3,1.4-0.6,2.8-0.9,4.1c-1.6,7.6-3.3,15.2-4.9,22.8
		c-0.1,0.5-0.3,0.7-0.8,0.7c-2,0-3.9,0-5.9,0C32.3,29.1,32.2,29.1,31.9,29.1z"/>
</g>
</svg>
